<svg width="20" height="20" viewBox="0 0 20 20" fill="none" xmlns="http://www.w3.org/2000/svg">
<rect width="20" height="20" rx="10" fill="url(#paint0_linear_16042_26523)"/>
<path d="M13.8552 5.31006H12.7714C12.1949 5.31006 12.16 5.80253 12.16 5.87295V11.0138C12.16 12.9152 10.3587 12.9856 10.0705 12.9856C9.78231 12.9856 7.98102 12.9856 7.98102 11.0138V5.80253C7.98102 5.66168 7.83691 5.30957 7.4046 5.30957H6.10767C5.67536 5.30957 5.53125 5.59126 5.53125 5.80253V11.5068C5.6033 13.0561 6.61203 15.3096 9.99847 15.3096C13.3849 15.3096 14.4657 12.9856 14.4657 11.4363V5.87295C14.4657 5.87295 14.5466 5.31006 13.8552 5.31006Z" fill="#2C2F30"/>
<defs>
<linearGradient id="paint0_linear_16042_26523" x1="4.03845" y1="-16.1175" x2="-11.1555" y2="-7.18922" gradientUnits="userSpaceOnUse">
<stop stop-color="#26C273"/>
<stop offset="1" stop-color="#96C83C"/>
</linearGradient>
</defs>
</svg>
