<svg width="477" height="116" viewBox="0 0 477 116" fill="none" xmlns="http://www.w3.org/2000/svg">
<path d="M124.168 47.6063C124.168 47.6063 129.02 45.3999 129.02 37.3096C129.02 31.7934 126.594 23.7031 114.81 23.7031C106.491 23.7031 98.1733 23.7031 94.0142 23.7031C91.5881 23.7031 91.2415 25.5418 91.2415 26.6451V72.245C91.2415 73.3483 91.5881 74.8192 94.0142 75.187C100.946 75.187 107.878 75.187 116.196 75.187C128.327 75.187 131.793 67.8321 131.793 60.4773C131.793 51.6515 126.247 47.6063 124.168 47.6063ZM103.026 34.7354C103.026 34.7354 110.651 34.7354 113.077 34.7354C115.503 34.7354 117.236 36.2063 117.236 39.1483C117.236 42.0902 115.503 43.5612 112.73 43.5612C110.651 43.5612 102.679 43.5612 102.679 43.5612L103.026 34.7354ZM115.849 63.787H103.026V53.4902H115.503C117.929 53.4902 120.355 54.9612 120.355 58.6386C120.355 62.6837 117.929 63.787 115.849 63.787Z" fill="#96C83C"/>
<path d="M222.252 32.1612V26.6451C222.252 25.9096 221.905 23.7031 219.479 23.7031H184.473C182.047 23.7031 181.701 25.9096 181.701 26.6451V31.7934C181.701 32.5289 182.047 34.7354 184.473 34.7354H196.258V71.8773C196.258 72.6128 196.604 74.8192 199.03 74.8192H205.269C207.348 74.8192 208.042 72.9805 208.042 72.245C208.042 57.5966 208.042 49.3838 208.042 34.7354H219.826C221.905 34.7354 222.252 32.8967 222.252 32.1612Z" fill="#96C83C"/>
<path d="M175.461 72.6151V66.7312C175.461 65.628 174.768 64.157 172.688 64.157H150.506V54.5958H168.529C169.915 54.228 170.608 53.1248 170.608 52.3893V46.1377C170.608 45.0345 169.915 43.5635 167.836 43.5635H150.16V35.1055H172.341C174.421 35.1055 174.768 33.6345 174.768 32.5313V26.6474C174.768 25.5442 174.074 24.0732 171.995 24.0732H140.802C138.722 24.0732 138.029 25.5442 138.029 26.6474V72.2474C138.029 72.2474 138.029 75.1893 140.802 75.1893H171.995C174.768 75.1893 175.461 73.3506 175.461 72.6151Z" fill="#96C83C"/>
<path d="M269.034 24.0742H262.795C260.023 24.0742 260.023 26.6484 260.023 27.0162V53.8613C260.023 63.7903 251.358 64.158 249.972 64.158C248.585 64.158 239.92 64.158 239.92 53.8613V26.6484C239.92 25.9129 239.227 24.0742 237.148 24.0742H230.909C228.829 24.0742 228.136 25.5452 228.136 26.6484V56.4355C228.483 64.5258 233.335 76.2935 249.625 76.2935C265.915 76.2935 271.114 64.158 271.114 56.0677V27.0162C271.807 25.9129 271.46 24.0742 269.034 24.0742Z" fill="white"/>
<path d="M323.804 72.2474V26.6474C323.804 25.5442 323.11 24.0732 321.031 24.0732H314.792C312.366 24.0732 312.019 25.912 312.019 26.6474V56.0668L291.224 25.1765C290.877 24.8087 290.184 24.441 289.144 24.441H281.866C279.44 24.441 279.093 26.6474 279.093 27.3829V72.6151C279.093 72.9829 279.44 75.5571 281.866 75.5571H288.105C289.838 75.5571 290.531 73.7184 290.531 72.9829V43.9313L311.326 74.8216C311.673 75.1893 312.366 75.9248 313.406 75.9248C314.099 75.9248 321.031 75.9248 321.031 75.9248C323.457 75.1893 323.804 72.9829 323.804 72.2474Z" fill="white"/>
<path d="M369.904 72.2474V67.099C369.904 66.3635 369.904 64.1571 367.478 64.1571H343.91V27.0152C343.91 25.912 343.217 24.0732 341.137 24.0732H335.245C332.819 24.0732 332.472 25.912 332.472 27.0152V72.6151C332.472 73.3506 332.819 75.5571 335.245 75.5571H367.478C369.557 74.8216 369.904 72.6151 369.904 72.2474Z" fill="white"/>
<path d="M387.577 72.6151V27.0152C387.577 25.912 386.883 24.0732 384.804 24.0732H378.565C376.139 24.0732 375.792 25.912 375.792 26.6474V72.2474C375.792 72.9829 376.139 74.8216 378.565 74.8216H384.804C386.883 75.1893 387.577 73.3506 387.577 72.6151Z" fill="white"/>
<path d="M425.702 63.0515L435.06 45.7676C435.06 45.7676 435.06 71.5095 435.06 71.8773C435.06 72.245 435.06 74.8192 437.833 74.8192H444.071C446.497 74.8192 446.497 72.6128 446.497 72.245V26.2773C446.497 25.5418 445.804 23.7031 443.725 23.7031H435.753C434.713 23.7031 434.367 24.0709 434.02 24.8064L421.889 47.9741L409.759 24.8064C409.412 24.0709 408.719 23.7031 408.026 23.7031H399.708C397.281 23.7031 396.935 25.5418 396.935 26.2773V71.8773C396.935 72.6128 397.281 74.4515 399.708 74.4515H405.946C408.026 74.4515 408.719 72.9805 408.719 71.8773V45.0321L418.424 62.316C418.77 63.0515 419.463 63.4192 420.503 63.4192H423.969C424.662 64.1547 425.355 63.787 425.702 63.0515Z" fill="white"/>
<path d="M53.7731 50C57.9828 46.6507 60.4591 41.3876 60.4591 35.8852C60.4591 28.4689 56.0018 21.7703 48.8206 18.8995L6.7239 0.239235C6.47628 0.239235 6.22865 0 5.98102 0C4.99051 0 4.24763 0.478471 4.24763 1.67464V40.9091C4.24763 41.6268 4.49526 42.1053 4.99051 42.3445L21.8292 49.7608L4.99051 57.177C4.49526 57.4163 4 58.134 4 58.6124V98.3253C4 99.2823 4.74288 100 5.73339 100C5.98102 100 6.22865 100 6.47627 99.7607L49.3158 80.622C56.0018 77.5119 60.2114 71.0526 60.2114 63.8756C60.4591 58.3732 57.9828 53.3493 53.7731 50ZM43.3728 68.6603L18.3624 79.9043V66.5072L38.6678 57.4163L43.1251 59.3301H43.3728C45.3538 60.0478 46.5919 61.9617 46.5919 63.8756C46.3443 65.7895 45.1062 67.7033 43.3728 68.6603ZM43.1251 40.4306L38.6678 42.3445L18.1148 33.0144V19.8565L43.3728 31.3397C45.3538 32.2966 46.5919 33.9713 46.5919 35.8852C46.3443 38.0383 45.1062 39.7129 43.1251 40.4306Z" fill="url(#paint0_linear_148_14)"/>
<path d="M60.2116 61.0028C59.4687 56.6966 57.24 52.8689 54.0209 50.2373L53.7732 49.998C53.0304 50.7158 51.297 51.6727 49.0683 52.8689C43.6205 55.2612 38.668 57.4143 38.668 57.4143L43.3729 59.5674C45.3539 60.2851 46.592 62.199 46.592 64.1129C46.592 65.7875 45.6015 67.7014 43.8681 68.6583C43.6205 68.4191 56.9924 62.4382 60.2116 61.0028Z" fill="url(#paint1_linear_148_14)"/>
<path d="M18.3612 33.2549L5.48462 42.585L22.0757 50.0013L38.6667 42.585L18.3612 33.2549Z" fill="url(#paint2_linear_148_14)"/>
<path d="M369.949 108L380.556 84.2034H385.995L396.635 108H390.856L382.153 86.991H384.329L375.592 108H369.949ZM375.252 102.901L376.714 98.7193H388.952L390.448 102.901H375.252ZM399.104 108V84.2034H409.405C411.535 84.2034 413.371 84.5547 414.912 85.2573C416.453 85.9372 417.643 86.923 418.481 88.2149C419.32 89.5067 419.739 91.0478 419.739 92.8382C419.739 94.6059 419.32 96.1357 418.481 97.4275C417.643 98.7193 416.453 99.7165 414.912 100.419C413.371 101.099 411.535 101.439 409.405 101.439H402.164L404.611 98.9573V108H399.104ZM404.611 99.5692L402.164 96.9516H409.099C410.798 96.9516 412.068 96.589 412.906 95.8637C413.745 95.1385 414.164 94.13 414.164 92.8382C414.164 91.5237 413.745 90.5039 412.906 89.7786C412.068 89.0534 410.798 88.6908 409.099 88.6908H402.164L404.611 86.0732V99.5692ZM423.671 108V84.2034H433.971C436.102 84.2034 437.938 84.5547 439.479 85.2573C441.02 85.9372 442.21 86.923 443.048 88.2149C443.887 89.5067 444.306 91.0478 444.306 92.8382C444.306 94.6059 443.887 96.1357 443.048 97.4275C442.21 98.7193 441.02 99.7165 439.479 100.419C437.938 101.099 436.102 101.439 433.971 101.439H426.73L429.178 98.9573V108H423.671ZM429.178 99.5692L426.73 96.9516H433.665C435.365 96.9516 436.634 96.589 437.473 95.8637C438.311 95.1385 438.731 94.13 438.731 92.8382C438.731 91.5237 438.311 90.5039 437.473 89.7786C436.634 89.0534 435.365 88.6908 433.665 88.6908H426.73L429.178 86.0732V99.5692Z" fill="white"/>
<defs>
<linearGradient id="paint0_linear_148_14" x1="32.3927" y1="14.6553" x2="32.2425" y2="100" gradientUnits="userSpaceOnUse">
<stop stop-color="#96C83C"/>
<stop offset="1" stop-color="#32C26D"/>
</linearGradient>
<linearGradient id="paint1_linear_148_14" x1="52.9712" y1="65.8703" x2="47.1567" y2="53.5537" gradientUnits="userSpaceOnUse">
<stop offset="0.0683302" stop-color="#5CC458" stop-opacity="0"/>
<stop offset="1" stop-color="#006F1C"/>
</linearGradient>
<linearGradient id="paint2_linear_148_14" x1="22.0752" y1="41.6279" x2="34.1952" y2="50.4052" gradientUnits="userSpaceOnUse">
<stop stop-color="#88C743"/>
<stop offset="1" stop-color="#2A950F"/>
</linearGradient>
</defs>
</svg>
